<svg xmlns="http://www.w3.org/2000/svg" viewBox="0 0 800 600" width="800" height="600">
  <!-- Background -->
  <rect width="800" height="600" fill="#f0f9f0"/>
  
  <!-- Landscape elements -->
  <path d="M0,400 Q200,350 400,400 T800,380 L800,600 L0,600 Z" fill="#16a34a" opacity="0.2"/>
  <path d="M0,450 Q200,420 400,450 T800,430 L800,600 L0,600 Z" fill="#16a34a" opacity="0.3"/>
  
  <!-- Sun -->
  <circle cx="650" cy="150" r="60" fill="#f59e0b"/>
  <circle cx="650" cy="150" r="70" fill="#f59e0b" opacity="0.3"/>
  
  <!-- Mountains -->
  <path d="M0,350 L200,200 L350,300 L500,180 L650,280 L800,220 L800,600 L0,600 Z" fill="#166534" opacity="0.7"/>
  
  <!-- Trees -->
  <g transform="translate(100,320) scale(0.8)">
    <path d="M0,0 L30,-50 L60,0 Z" fill="#15803d"/>
    <path d="M10,-10 L30,-70 L50,-10 Z" fill="#15803d"/>
    <path d="M20,-30 L30,-90 L40,-30 Z" fill="#15803d"/>
    <rect x="25" y="0" width="10" height="30" fill="#7c2d12"/>
  </g>
  
  <g transform="translate(200,340) scale(0.7)">
    <path d="M0,0 L30,-50 L60,0 Z" fill="#15803d"/>
    <path d="M10,-10 L30,-70 L50,-10 Z" fill="#15803d"/>
    <path d="M20,-30 L30,-90 L40,-30 Z" fill="#15803d"/>
    <rect x="25" y="0" width="10" height="30" fill="#7c2d12"/>
  </g>
  
  <g transform="translate(700,330) scale(0.9)">
    <path d="M0,0 L30,-50 L60,0 Z" fill="#15803d"/>
    <path d="M10,-10 L30,-70 L50,-10 Z" fill="#15803d"/>
    <path d="M20,-30 L30,-90 L40,-30 Z" fill="#15803d"/>
    <rect x="25" y="0" width="10" height="30" fill="#7c2d12"/>
  </g>
  
  <!-- Traditional hut -->
  <g transform="translate(400,350)">
    <!-- Hut base -->
    <rect x="-40" y="-20" width="80" height="60" rx="5" fill="#a16207"/>
    
    <!-- Hut roof -->
    <path d="M-50,-20 L0,-70 L50,-20 Z" fill="#854d0e"/>
    
    <!-- Door -->
    <rect x="-10" y="10" width="20" height="30" fill="#422006"/>
    
    <!-- Window -->
    <rect x="20" y="-5" width="15" height="15" fill="#422006"/>
  </g>
  
  <!-- People silhouettes -->
  <g transform="translate(350,380)">
    <!-- Person 1 -->
    <circle cx="0" cy="-15" r="8" fill="#1e293b"/>
    <line x1="0" y1="-7" x2="0" y2="15" stroke="#1e293b" stroke-width="3"/>
    <line x1="0" y1="0" x2="-10" y2="10" stroke="#1e293b" stroke-width="3"/>
    <line x1="0" y1="0" x2="10" y2="10" stroke="#1e293b" stroke-width="3"/>
    <line x1="0" y1="15" x2="-8" y2="30" stroke="#1e293b" stroke-width="3"/>
    <line x1="0" y1="15" x2="8" y2="30" stroke="#1e293b" stroke-width="3"/>
  </g>
  
  <g transform="translate(450,385)">
    <!-- Person 2 -->
    <circle cx="0" cy="-15" r="7" fill="#1e293b"/>
    <line x1="0" y1="-8" x2="0" y2="12" stroke="#1e293b" stroke-width="2.5"/>
    <line x1="0" y1="-2" x2="-8" y2="8" stroke="#1e293b" stroke-width="2.5"/>
    <line x1="0" y1="-2" x2="8" y2="8" stroke="#1e293b" stroke-width="2.5"/>
    <line x1="0" y1="12" x2="-7" y2="25" stroke="#1e293b" stroke-width="2.5"/>
    <line x1="0" y1="12" x2="7" y2="25" stroke="#1e293b" stroke-width="2.5"/>
  </g>
  
  <!-- Text -->
  <text x="400" y="500" font-family="Arial" font-size="24" font-weight="bold" text-anchor="middle" fill="#166534">Notre Histoire</text>
  <text x="400" y="530" font-family="Arial" font-size="16" text-anchor="middle" fill="#166534">Découvrez les racines de The Elom Tours</text>
</svg>